HIERARCHY
ROOT Hips
{
	OFFSET	0.00	0.00	0.00
	CHANNELS 6 Xposition Yposition Zposition Zrotation Xrotation Yrotation
	JOINT LeftUpLeg
	{
		OFFSET	 0.126116	-0.014019	-0.065224
		CHANNELS 3 Zrotation Xrotation Yrotation
		JOINT LeftLeg
		{
			OFFSET	 0.000000	 0.000000	 0.569914
			CHANNELS 3 Zrotation Xrotation Yrotation
			JOINT LeftFoot
			{
				OFFSET	 0.000000	 0.000000	 0.544423
				CHANNELS 3 Zrotation Xrotation Yrotation
				JOINT LeftToeBase
				{
					OFFSET	 0.000000	 0.000000	 0.207117
					CHANNELS 3 Zrotation Xrotation Yrotation
					End Site
					{
						OFFSET	 0.000000	 0.000000	 0.207117
					}
				}
			}
		}
	}
	JOINT RightUpLeg
	{
		OFFSET	-0.124023	-0.008373	-0.065224
		CHANNELS 3 Zrotation Xrotation Yrotation
		JOINT RightLeg
		{
			OFFSET	 0.000000	 0.000000	 0.570047
			CHANNELS 3 Zrotation Xrotation Yrotation
			JOINT RightFoot
			{
				OFFSET	 0.000000	 0.000000	 0.544354
				CHANNELS 3 Zrotation Xrotation Yrotation
				JOINT RightToeBase
				{
					OFFSET	 0.000000	 0.000000	 0.207540
					CHANNELS 3 Zrotation Xrotation Yrotation
					End Site
					{
						OFFSET	 0.000000	 0.000000	 0.207540
					}
				}
			}
		}
	}
	JOINT Spine
	{
		OFFSET	 0.000184	-0.007763	 0.117403
		CHANNELS 3 Zrotation Xrotation Yrotation
		JOINT Spine1
		{
			OFFSET	 0.000000	 0.000000	 0.137269
			CHANNELS 3 Zrotation Xrotation Yrotation
			JOINT Spine2
			{
				OFFSET	 0.000000	 0.000000	 0.156879
				CHANNELS 3 Zrotation Xrotation Yrotation
				JOINT LeftShoulder
				{
					OFFSET	 0.080501	-0.002496	 0.160144
					CHANNELS 3 Zrotation Xrotation Yrotation
					JOINT LeftArm
					{
						OFFSET	 0.000000	 0.000000	 0.164363
						CHANNELS 3 Zrotation Xrotation Yrotation
						JOINT LeftForeArm
						{
							OFFSET	 0.000000	 0.000000	 0.364576
							CHANNELS 3 Zrotation Xrotation Yrotation
							JOINT LeftHand
							{
								OFFSET	 0.000000	 0.000000	 0.360812
								CHANNELS 3 Zrotation Xrotation Yrotation
								JOINT LeftHandIndex1
								{
									OFFSET	 0.000000	 0.000000	 0.086006
									CHANNELS 3 Zrotation Xrotation Yrotation
									JOINT LeftHandIndex2
									{
										OFFSET	 0.000000	 0.000000	 0.047236
										CHANNELS 3 Zrotation Xrotation Yrotation
										JOINT LeftHandIndex3
										{
											OFFSET	-0.004284	-0.000551	 0.038166
											CHANNELS 3 Zrotation Xrotation Yrotation
											End Site
											{
												OFFSET	-0.004284	-0.000551	 0.038166
											}
										}
									}
								}
							}
						}
					}
				}
				JOINT Neck
				{
					OFFSET	 0.000000	 0.000000	 0.176489
					CHANNELS 3 Zrotation Xrotation Yrotation
					JOINT Head
					{
						OFFSET	 0.000000	-0.001747	 0.077940
						CHANNELS 3 Zrotation Xrotation Yrotation
						End Site
						{
							OFFSET	 0.000000	-0.001747	 0.077940
						}
					}
				}
				JOINT RightShoulder
				{
					OFFSET	-0.080363	 0.000306	 0.159706
					CHANNELS 3 Zrotation Xrotation Yrotation
					JOINT RightArm
					{
						OFFSET	 0.000000	 0.000000	 0.164196
						CHANNELS 3 Zrotation Xrotation Yrotation
						JOINT RightForeArm
						{
							OFFSET	 0.000000	 0.000000	 0.365611
							CHANNELS 3 Zrotation Xrotation Yrotation
							JOINT RightHand
							{
								OFFSET	 0.000000	 0.000000	 0.360648
								CHANNELS 3 Zrotation Xrotation Yrotation
								JOINT RightHandIndex1
								{
									OFFSET	 0.000000	 0.000000	 0.069977
									CHANNELS 3 Zrotation Xrotation Yrotation
									JOINT RightHandIndex2
									{
										OFFSET	 0.000000	 0.000000	 0.052305
										CHANNELS 3 Zrotation Xrotation Yrotation
										JOINT RightHandIndex3
										{
											OFFSET	 0.009002	-0.000782	 0.042196
											CHANNELS 3 Zrotation Xrotation Yrotation
											End Site
											{
												OFFSET	 0.009002	-0.000782	 0.042196
											}
										}
									}
								}
							}
						}
					}
				}
			}
		}
	}
}
MOTION
Frames:    8
Frame Time: 0.03333334
-9.657445	-22.475540	-0.358128	-49.852570	 8.471411	 1.748826	 4.556976	-21.978650	 173.754600	-1.632977	-41.653400	-0.246424	 0.059104	 85.424190	-0.565134	-2.385848	 28.447670	 0.000111	-2.522465	-22.818860	-178.745600	-0.117171	-42.646680	 0.028459	-0.291182	 86.417010	 0.563025	 2.407683	 17.331970	-0.225588	-0.078062	 9.439860	-0.369242	 0.426860	 7.569706	-2.508914	 0.668038	 5.122154	 0.014336	-124.556100	 89.562100	-144.774900	 64.733800	 61.587100	-87.331000	-5.308776	-4.633968	-21.944480	 6.776170	-2.201175	-5.334748	-3.812334	 37.924440	-2.927599	-2.450526	 36.184240	 0.754587	-1.378229	 35.397820	-2.634230	 0.465279	 3.101444	-0.652192	 0.793650	 8.066868	-0.217310	 94.401350	 86.822390	 171.998300	-64.352570	 73.500950	 80.726110	-3.332249	-15.019480	 26.885770	-26.915000	-3.187125	 9.583690	 6.437017	 35.671460	-0.771858	 2.830251	 35.756010	-7.813440	-2.350882	 35.473990	 5.254307
-9.653528	-22.472700	-0.357785	-49.875250	 8.026450	 1.692850	 4.526059	-22.050310	 174.184700	-1.657177	-40.015400	-0.200991	 0.082874	 84.632280	-0.559594	-2.385796	 28.461090	-0.000176	-2.477552	-22.932220	-178.754900	-0.127452	-40.910150	-0.002424	-0.212315	 85.556130	 0.453218	 2.407683	 17.327640	-0.225670	-0.148176	 9.045259	-0.375189	 0.347289	 6.959713	-2.359560	 0.625564	 4.630356	 0.016115	-115.634800	 89.398020	-153.593600	 56.111720	 59.986170	-78.244490	-3.650321	-4.410873	-20.776320	 6.693233	-2.198012	-5.336002	-3.812334	 37.924440	-2.927599	-2.450526	 36.184240	 0.754587	-1.378229	 35.397820	-2.634230	 0.458122	 2.651611	-0.646252	 0.728182	 7.600384	-0.158526	 94.721670	 86.911110	 171.581100	-53.504690	 70.292050	 71.713810	-3.193280	-12.992250	 25.811250	-24.109870	-3.187081	 9.583989	 6.437017	 35.671460	-0.771858	 2.830251	 35.756010	-7.813440	-2.350882	 35.473990	 5.254307
-9.652905	-22.472720	-0.355298	-49.893530	 8.051097	 1.761052	 4.528223	-22.213610	 174.149400	-1.692419	-40.341670	-0.231100	 0.151296	 84.741630	-0.659014	-2.385706	 28.479890	-0.000588	-2.462974	-23.100800	-178.763400	-0.103461	-41.154790	 0.027632	-0.342700	 85.650080	 0.619786	 2.407680	 17.574360	-0.220849	-0.212208	 9.096776	-0.437224	 0.346294	 6.925719	-2.382277	 0.621434	 4.582720	 0.016272	-115.670200	 89.395420	-153.544500	 55.963550	 59.596920	-78.060300	-3.714575	-4.281556	-21.059470	 6.272917	-2.196373	-5.338464	-3.812334	 37.924440	-2.927599	-2.450526	 36.184240	 0.754587	-1.378229	 35.397820	-2.634230	 0.453076	 2.592469	-0.612491	 0.729545	 7.567338	-0.205110	 94.718670	 86.899980	 171.569700	-53.432940	 70.008060	 71.795100	-3.146498	-12.936500	 25.988890	-23.911830	-3.186910	 9.584590	 6.437017	 35.671460	-0.771858	 2.830251	 35.756010	-7.813440	-2.350882	 35.473990	 5.254307
-9.652348	-22.472570	-0.356071	-49.904980	 8.047313	 1.798462	 4.499444	-22.386770	 174.108800	-1.738530	-40.644300	-0.285722	 0.038829	 84.838670	-0.600833	-2.385558	 28.513740	-0.001318	-2.448112	-23.254230	-178.769300	-0.086083	-41.395040	 0.053775	-0.457592	 85.731900	 0.764661	 2.407678	 17.727710	-0.217860	-0.288941	 9.151618	-0.470949	 0.345026	 6.895863	-2.399539	 0.616054	 4.538293	 0.016370	-115.552200	 89.389950	-153.647100	 55.803900	 59.208470	-77.897960	-3.767796	-4.156185	-21.327700	 5.891097	-2.194009	-5.341026	-3.812334	 37.924440	-2.927599	-2.450526	 36.184240	 0.754587	-1.378229	 35.397820	-2.634230	 0.445122	 2.518858	-0.592916	 0.729611	 7.554869	-0.246763	 94.721480	 86.893230	 171.554500	-53.335190	 69.724880	 71.848820	-3.108973	-12.905030	 26.203230	-23.745230	-3.186464	 9.585374	 6.437017	 35.671460	-0.771858	 2.830251	 35.756010	-7.813440	-2.350882	 35.473990	 5.254307
-9.651445	-22.472310	-0.357175	-49.927670	 8.035434	 1.823990	 4.505635	-22.676810	 174.078800	-1.766302	-41.041860	-0.307929	 0.144761	 84.960520	-0.725365	-2.385303	 28.570800	-0.002551	-2.432038	-23.463280	-178.758900	-0.070353	-41.725620	 0.082970	-0.603107	 85.833830	 0.941774	 2.407659	 17.887420	-0.214731	-0.402927	 9.231580	-0.497735	 0.347054	 6.856689	-2.415662	 0.607610	 4.479406	 0.016455	-115.282100	 89.377560	-153.892200	 55.561140	 58.722430	-77.695270	-3.875032	-3.990201	-21.690900	 5.411118	-2.188629	-5.344584	-3.812334	 37.924440	-2.927599	-2.450526	 36.184240	 0.754587	-1.378229	 35.397820	-2.634230	 0.434859	 2.408082	-0.576544	 0.725049	 7.551589	-0.291961	 94.730340	 86.886740	 171.529300	-53.155980	 69.350880	 71.869030	-3.057192	-12.883220	 26.529110	-23.548600	-3.185471	 9.586823	 6.437017	 35.671460	-0.771858	 2.830251	 35.756010	-7.813440	-2.350882	 35.473990	 5.254307
-9.650440	-22.472020	-0.358321	-49.960750	 8.037092	 1.831856	 4.523611	-22.981180	 174.056900	-1.797786	-41.439040	-0.324901	 0.245481	 85.078530	-0.837643	-2.385181	 28.600280	-0.003185	-2.422037	-23.688130	-178.729800	-0.058511	-42.069170	 0.107363	-0.742174	 85.931380	 1.105358	 2.407634	 18.024260	-0.212054	-0.525992	 9.318408	-0.511326	 0.349472	 6.816366	-2.423847	 0.596329	 4.419931	 0.016462	-114.964400	 89.362650	-154.179000	 55.284750	 58.299820	-77.510380	-3.913607	-3.881948	-22.058370	 5.107494	-2.181922	-5.347643	-3.812334	 37.924440	-2.927599	-2.450526	 36.184240	 0.754587	-1.378229	 35.397820	-2.634230	 0.423936	 2.290986	-0.569118	 0.714342	 7.553472	-0.307250	 94.742770	 86.880780	 171.498800	-52.925760	 68.990510	 71.833280	-2.995666	-12.875330	 26.883600	-23.373320	-3.184118	 9.588675	 6.437017	 35.671460	-0.771858	 2.830251	 35.756010	-7.813440	-2.350882	 35.473990	 5.254307
-9.649301	-22.471620	-0.359671	-50.003350	 8.055773	 1.840192	 4.556111	-23.298260	 174.036900	-1.833828	-41.897700	-0.337916	 0.357156	 85.211650	-0.954433	-2.385087	 28.620080	-0.003618	-2.412735	-23.969820	-178.698300	-0.052548	-42.478390	 0.129251	-0.896196	 86.040720	 1.279041	 2.407598	 18.174590	-0.209106	-0.680355	 9.425160	-0.520477	 0.349530	 6.767406	-2.429295	 0.580197	 4.350302	 0.016370	-114.593500	 89.344190	-154.508700	 54.925690	 57.914360	-77.311130	-3.863739	-3.843992	-22.487500	 5.002312	-2.173537	-5.350037	-3.812334	 37.924440	-2.927599	-2.450526	 36.184240	 0.754587	-1.378229	 35.397820	-2.634230	 0.409784	 2.155527	-0.562501	 0.697322	 7.554321	-0.302059	 94.759610	 86.873060	 171.458500	-52.633650	 68.592410	 71.779510	-2.908106	-12.876090	 27.310280	-23.193410	-3.195227	 9.576182	 6.437017	 35.671460	-0.771858	 2.830251	 35.756010	-7.813440	-2.350882	 35.473990	 5.254307
-9.647986	-22.471080	-0.361228	-50.050490	 8.082198	 1.849536	 4.602582	-23.640040	 174.020600	-1.876917	-42.411700	-0.348308	 0.475022	 85.358270	-1.072655	-2.384971	 28.646280	-0.004185	-2.402953	-24.314250	-178.664500	-0.057166	-42.948930	 0.145810	-1.064206	 86.160180	 1.458942	 2.407549	 18.348320	-0.205695	-0.864126	 9.550762	-0.532734	 0.347186	 6.708764	-2.435597	 0.564498	 4.270940	 0.016316	-114.156800	 89.322470	-154.904200	 54.497730	 57.571960	-77.116830	-3.761371	-3.867573	-22.981450	 5.063324	-2.164175	-5.351874	-3.812334	 37.924440	-2.927599	-2.450526	 36.184240	 0.754587	-1.378229	 35.397820	-2.634230	 0.394928	 2.008939	-0.551620	 0.682729	 7.547774	-0.284835	 94.779270	 86.862820	 171.408500	-52.297270	 68.170070	 71.738260	-2.787409	-12.883460	 27.795860	-23.013510	-3.194122	 9.577901	 6.437017	 35.671460	-0.771858	 2.830251	 35.756010	-7.813440	-2.350882	 35.473990	 5.254307
